<?xml version="1.0" encoding="UTF-8" standalone="no"?>
<!DOCTYPE svg PUBLIC "-//W3C//DTD SVG 1.1//EN" "http://www.w3.org/Graphics/SVG/1.1/DTD/svg11.dtd">
<!-- Created with Vectornator (http://vectornator.io/) -->
<svg height="100%" stroke-miterlimit="10" style="fill-rule:nonzero;clip-rule:evenodd;stroke-linecap:round;stroke-linejoin:round;" version="1.1" viewBox="0 0 1500 500" width="100%" xml:space="preserve" xmlns="http://www.w3.org/2000/svg" xmlns:vectornator="http://vectornator.io" xmlns:xlink="http://www.w3.org/1999/xlink">
<defs>
<clipPath id="TextBounds">
<rect height="225.99" width="938.216" x="431.628" y="136.425"/>
</clipPath>
</defs>
<g id="Layer-1" vectornator:layerName="Layer 1">
<g fill="#000000" opacity="1" stroke="none">
<path clip-path="url(#TextBounds)" d="M501.096 326.378L487.131 326.378L433.616 181.359L461.546 181.359L494.651 278.038L529.612 181.359L556.956 181.359L501.096 326.378Z"/>
<path clip-path="url(#TextBounds)" d="M572.581 324.425L572.581 181.359L597.971 181.359L597.971 324.425L572.581 324.425Z"/>
<path clip-path="url(#TextBounds)" d="M710.081 324.425L710.081 259.972L653.147 259.972L653.147 324.425L627.756 324.425L627.756 181.359L653.147 181.359L653.147 237.413L710.081 237.413L710.081 181.359L735.178 181.359L735.178 324.425L710.081 324.425Z"/>
<path clip-path="url(#TextBounds)" d="M789.866 203.917L789.866 237.413L837.131 237.413L837.131 258.995L789.866 258.995L789.866 301.866L854.71 301.866L854.71 324.425L764.475 324.425L764.475 181.359L855.784 181.359L855.784 203.917L789.866 203.917Z"/>
<path clip-path="url(#TextBounds)" d="M958.909 324.425L920.725 265.343C916.884 265.278 911.513 265.05 904.612 264.659L904.612 324.425L878.245 324.425L878.245 181.359C879.677 181.359 885.178 181.114 894.749 180.626C904.319 180.138 912.034 179.894 917.893 179.894C954.221 179.894 972.385 193.956 972.385 222.081C972.385 230.545 969.879 238.26 964.866 245.226C959.853 252.192 953.538 257.107 945.921 259.972L988.206 324.425L958.909 324.425ZM904.612 203.429L904.612 243.175C909.299 243.566 912.88 243.761 915.354 243.761C925.966 243.761 933.73 242.264 938.645 239.269C943.561 236.274 946.018 230.447 946.018 221.788C946.018 214.757 943.381 209.842 938.108 207.042C932.835 204.243 924.534 202.843 913.206 202.843C910.471 202.843 907.607 203.038 904.612 203.429Z"/>
<path clip-path="url(#TextBounds)" d="M1106.08 192.98L1095.43 213.39C1092.44 210.721 1087.82 208.068 1081.57 205.431C1075.32 202.794 1069.94 201.476 1065.45 201.476C1051.39 201.476 1040.29 206.245 1032.15 215.782C1024.01 225.32 1019.94 238.097 1019.94 254.113C1019.94 269.347 1023.93 281.521 1031.91 290.636C1039.88 299.751 1050.74 304.308 1064.48 304.308C1073.52 304.308 1080.98 301.834 1086.84 296.886L1086.84 268.761L1067.01 268.761L1067.01 247.081L1112.23 247.081L1112.23 311.144C1106.17 316.092 1098.38 319.949 1088.84 322.716C1079.3 325.483 1069.81 326.866 1060.37 326.866C1039.87 326.866 1023.61 320.144 1011.59 306.7C999.583 293.256 993.577 275.499 993.577 253.429C993.577 231.359 1000.12 213.422 1013.21 199.62C1026.29 185.818 1043.9 178.917 1066.04 178.917C1081.73 178.917 1095.07 183.605 1106.08 192.98Z"/>
<path clip-path="url(#TextBounds)" d="M1135.18 324.425L1135.18 181.359L1160.57 181.359L1160.57 324.425L1135.18 324.425Z"/>
<path clip-path="url(#TextBounds)" d="M1273.85 324.425L1263.4 295.421L1214.38 295.421L1204.42 324.425L1176.19 324.425L1233.23 179.405L1244.36 179.405L1301.88 324.425L1273.85 324.425ZM1238.79 223.155L1221.6 275.988L1255.98 275.988L1238.79 223.155Z"/>
</g>
<path d="M274.146 349.234C264.844 363.456 264.042 386.018 264.042 397.73" fill="#29800d" fill-rule="nonzero" opacity="1" stroke="#000000" stroke-linecap="butt" stroke-linejoin="miter" stroke-width="2"/>
<path d="M325.568 371.171C292.52 371.171 277.463 343.404 277.463 317.589C277.463 274.312 313.326 251.657 348.767 251.657C373.289 251.657 392.807 261.192 393.625 261.59L410.823 270.115L396.584 283.74C385.519 294.337 380.721 308.825 376.079 322.821C368.935 344.36 360.048 371.171 325.568 371.171ZM218.077 116.354C194.205 127.694 174.386 147.361 161.446 171.981L199.437 171.981C203.718 150.229 210.092 131.333 218.077 116.354ZM369.428 171.981C356.488 147.361 336.669 127.694 312.808 116.354C320.782 131.333 327.156 150.229 331.437 171.981L369.428 171.981ZM265.437 105.584C250.067 105.584 233.507 131.625 224.379 171.981L306.495 171.981C297.367 131.625 280.807 105.584 265.437 105.584ZM337.246 225.842C341.082 225.404 344.931 225.098 348.767 225.098C363.054 225.098 375.766 227.701 385.423 230.556C384.834 219.468 383.066 208.738 380.156 198.54L335.418 198.54C336.368 207.317 336.909 216.493 337.246 225.842ZM259.905 351.531C255.672 340.934 253.411 329.288 253.411 317.589C253.411 313.154 253.759 308.905 254.277 304.775L224.379 304.775C231.655 336.937 243.657 359.751 256.008 367.785C257.031 362.102 258.257 356.617 259.905 351.531ZM193.279 238.378C193.279 224.488 194.085 211.222 195.456 198.54L150.718 198.54C147.134 211.129 145.174 224.501 145.174 238.378C145.174 252.255 147.134 265.627 150.718 278.216L195.456 278.216C194.085 265.534 193.279 252.268 193.279 238.378ZM313.326 231.526C313.085 220.039 312.4 208.924 311.113 198.54L219.761 198.54C218.21 211.009 217.332 224.368 217.332 238.378C217.332 252.388 218.21 265.747 219.761 278.216L261.649 278.216C272.087 255.389 291.414 239.639 313.326 231.526ZM161.446 304.775C174.386 329.395 194.205 349.061 218.065 360.402C210.092 345.423 203.718 326.526 199.437 304.775L161.446 304.775Z" fill="#29800d" fill-rule="nonzero" opacity="1" stroke="none"/>
</g>
</svg>
